<?xml version="1.0" standalone="no"?>
<!DOCTYPE svg PUBLIC "-//W3C//DTD SVG 20010904//EN"
 "http://www.w3.org/TR/2001/REC-SVG-20010904/DTD/svg10.dtd">
<svg version="1.0" xmlns="http://www.w3.org/2000/svg"
 width="512.000000pt" height="512.000000pt" viewBox="0 0 512.000000 512.000000"
 preserveAspectRatio="xMidYMid meet">
<metadata>
Created by potrace 1.14, written by Peter Selinger 2001-2017
</metadata>
<g transform="translate(0.000000,512.000000) scale(0.100000,-0.100000)"
fill="#000000" stroke="none">
<path d="M2270 4475 c-247 -34 -594 -146 -777 -252 l-42 -24 -88 35 c-267 106
-560 154 -868 142 -199 -7 -312 -24 -331 -51 -17 -22 -77 -204 -103 -310 -109
-442 -65 -967 114 -1360 26 -57 27 -68 30 -245 2 -163 5 -198 29 -290 109
-426 432 -808 911 -1078 224 -126 546 -245 790 -292 33 -7 105 -27 160 -45
181 -60 249 -70 465 -70 216 0 284 10 465 70 55 18 127 38 160 45 33 6 110 25
170 42 463 127 853 349 1137 647 208 219 329 429 394 681 24 92 27 127 29 290
3 177 4 188 30 245 179 393 223 918 114 1360 -31 126 -90 296 -109 315 -46 46
-514 63 -735 26 -153 -25 -318 -69 -441 -117 l-104 -41 -43 25 c-187 108 -531
219 -785 252 -138 18 -439 18 -572 0z m631 -134 c193 -35 394 -99 542 -173
l79 -39 -79 -48 c-167 -101 -268 -177 -284 -213 -9 -23 -8 -32 5 -53 24 -36
68 -33 120 8 387 310 932 473 1429 428 70 -7 134 -14 141 -17 7 -3 28 -53 46
-112 118 -383 126 -769 24 -1152 -28 -103 -121 -350 -133 -350 -3 0 -13 -20
-20 -45 -12 -41 -11 -48 5 -73 16 -22 19 -44 17 -126 -12 -552 -464 -1076
-1177 -1363 -60 -24 -111 -41 -114 -38 -3 2 12 23 33 46 75 84 118 227 80 269
-23 25 -67 26 -88 2 -9 -10 -21 -41 -27 -69 -38 -177 -340 -373 -693 -450
-114 -25 -380 -25 -494 0 -195 43 -388 127 -522 227 -96 73 -155 150 -171 223
-6 28 -18 59 -27 69 -21 24 -65 23 -88 -2 -38 -42 5 -185 80 -269 21 -23 36
-44 33 -46 -3 -3 -54 14 -114 38 -289 116 -524 263 -724 451 -290 273 -446
586 -453 912 -2 82 1 104 17 126 16 25 17 32 5 73 -7 25 -17 45 -20 45 -12 0
-105 247 -133 350 -102 383 -94 769 24 1152 18 59 39 109 46 112 7 3 71 10
141 17 497 45 1042 -118 1429 -428 52 -41 96 -44 120 -8 13 21 14 30 5 53 -16
35 -151 136 -299 223 l-64 38 78 39 c188 94 460 170 699 196 102 11 413 -3
526 -23z"/>
<path d="M1114 2762 c-25 -16 -32 -47 -23 -100 10 -66 46 -129 100 -175 l40
-35 -45 -45 c-55 -55 -100 -142 -116 -223 -25 -125 24 -278 117 -370 167 -163
426 -162 591 3 135 135 162 349 64 508 -82 134 -212 205 -376 205 -92 0 -147
13 -188 43 -34 25 -68 92 -68 134 0 16 -8 37 -18 46 -19 18 -59 22 -78 9z
m237 -465 c43 -33 47 -97 9 -132 -30 -27 -90 -22 -117 10 -33 38 -27 89 16
122 21 16 71 16 92 0z"/>
<path d="M3927 2752 c-10 -10 -17 -31 -17 -47 0 -40 -35 -107 -68 -132 -41
-30 -96 -43 -188 -43 -132 0 -217 -33 -307 -119 -93 -89 -132 -191 -125 -326
13 -245 240 -428 481 -387 188 33 321 170 349 362 19 125 -23 249 -115 343
l-48 49 41 35 c93 80 136 235 76 275 -20 14 -63 8 -79 -10z m-412 -467 c62
-62 -2 -162 -85 -134 -36 13 -50 36 -50 83 0 68 86 101 135 51z"/>
</g>
</svg>
